<svg width="137" height="137" viewBox="0 0 137 137" fill="none" xmlns="http://www.w3.org/2000/svg">
<path d="M0 24C0 10.7452 10.7452 0 24 0H113C126.255 0 137 10.7452 137 24V113C137 126.255 126.255 137 113 137H24C10.7452 137 0 126.255 0 113V24Z" fill="#F5F5F5"/>
<path d="M73.8168 68.5L92.4255 49.8913C93.1188 49.1838 93.505 48.2313 93.5 47.2407C93.4949 46.2502 93.0992 45.3016 92.3988 44.6012C91.6984 43.9008 90.7498 43.5051 89.7593 43.5C88.7687 43.495 87.8162 43.8812 87.1087 44.5745L68.5 63.1832L49.8913 44.5745C49.1838 43.8812 48.2313 43.495 47.2407 43.5C46.2502 43.5051 45.3016 43.9008 44.6012 44.6012C43.9008 45.3016 43.5051 46.2502 43.5 47.2407C43.495 48.2313 43.8812 49.1838 44.5745 49.8913L63.1832 68.5L44.5745 87.1087C43.8812 87.8162 43.495 88.7687 43.5 89.7593C43.5051 90.7498 43.9008 91.6984 44.6012 92.3988C45.3016 93.0992 46.2502 93.4949 47.2407 93.5C48.2313 93.505 49.1838 93.1188 49.8913 92.4255L68.5 73.8168L87.1087 92.4255C87.8162 93.1188 88.7687 93.505 89.7593 93.5C90.7498 93.4949 91.6984 93.0992 92.3988 92.3988C93.0992 91.6984 93.4949 90.7498 93.5 89.7593C93.505 88.7687 93.1188 87.8162 92.4255 87.1087L73.8168 68.5Z" fill="#D9D9D9"/>
</svg>
