<svg width="149" height="149" viewBox="0 0 149 149" fill="none" xmlns="http://www.w3.org/2000/svg">
<g filter="url(#filter0_d_123_571)">
<path d="M6 31C6 17.7452 16.7452 7 30 7H119C132.255 7 143 17.7452 143 31V120C143 133.255 132.255 144 119 144H30C16.7452 144 6 133.255 6 120V31Z" fill="#FFF1F2" shape-rendering="crispEdges"/>
<path d="M30 7.5H119C131.979 7.5 142.5 18.0213 142.5 31V120C142.5 132.979 131.979 143.5 119 143.5H30C17.0213 143.5 6.5 132.979 6.5 120V31C6.5 18.0213 17.0213 7.5 30 7.5Z" stroke="#F43F5E" shape-rendering="crispEdges"/>
<path d="M51.3931 52.477C52.6056 51.263 54.2499 50.581 55.9644 50.581C57.6788 50.581 59.3231 51.263 60.5356 52.477L74.4628 66.4195L88.3835 52.477C88.98 51.8585 89.6934 51.3651 90.4823 51.0258C91.2711 50.6864 92.1196 50.5077 92.9781 50.5002C93.8366 50.4928 94.688 50.6566 95.4826 50.9822C96.2772 51.3078 96.9991 51.7887 97.6062 52.3967C98.2133 53.0048 98.6934 53.7278 99.0185 54.5237C99.3436 55.3195 99.5072 56.1723 99.4998 57.0321C99.4923 57.892 99.3139 58.7417 98.9751 59.5318C98.6362 60.3219 98.1436 61.0365 97.5261 61.6338L83.6054 75.5828L97.5261 89.5253C98.7039 90.7467 99.3556 92.3825 99.3409 94.0804C99.3261 95.7784 98.6461 97.4026 97.4473 98.6033C96.2485 99.8039 94.6268 100.485 92.9315 100.5C91.2363 100.515 89.603 99.8618 88.3835 98.6822L74.4628 84.7397L60.5356 98.6822C59.3115 99.8335 57.6882 100.463 56.0091 100.437C54.33 100.41 52.727 99.7311 51.5392 98.5422C50.3513 97.3534 49.6719 95.7483 49.6446 94.0666C49.6174 92.385 50.2444 90.7586 51.3931 89.5318L65.3138 75.5893L51.3931 61.6403C50.1809 60.4259 49.5 58.7791 49.5 57.0619C49.5 55.3447 50.1809 53.6979 51.3931 52.4835" fill="#FF0000"/>
</g>
<defs>
<filter id="filter0_d_123_571" x="0" y="0" width="149" height="149" filterUnits="userSpaceOnUse" color-interpolation-filters="sRGB">
<feFlood flood-opacity="0" result="BackgroundImageFix"/>
<feColorMatrix in="SourceAlpha" type="matrix" values="0 0 0 0 0 0 0 0 0 0 0 0 0 0 0 0 0 0 127 0" result="hardAlpha"/>
<feOffset dy="-1"/>
<feGaussianBlur stdDeviation="3"/>
<feComposite in2="hardAlpha" operator="out"/>
<feColorMatrix type="matrix" values="0 0 0 0 0 0 0 0 0 0 0 0 0 0 0 0 0 0 0.25 0"/>
<feBlend mode="normal" in2="BackgroundImageFix" result="effect1_dropShadow_123_571"/>
<feBlend mode="normal" in="SourceGraphic" in2="effect1_dropShadow_123_571" result="shape"/>
</filter>
</defs>
</svg>
