<svg width="137" height="137" viewBox="0 0 137 137" fill="none" xmlns="http://www.w3.org/2000/svg">
<path d="M0 24C0 10.7452 10.7452 0 24 0H113C126.255 0 137 10.7452 137 24V113C137 126.255 126.255 137 113 137H24C10.7452 137 0 126.255 0 113V24Z" fill="#F5F5F5"/>
<path d="M68.5 50.7917C65.2882 50.7917 62.326 51.5838 59.6133 53.168C56.9006 54.7522 54.7522 56.9006 53.168 59.6133C51.5838 62.326 50.7917 65.2882 50.7917 68.5C50.7917 71.7118 51.5838 74.674 53.168 77.3867C54.7522 80.0994 56.9006 82.2478 59.6133 83.832C62.326 85.4162 65.2882 86.2083 68.5 86.2083C71.7118 86.2083 74.674 85.4162 77.3867 83.832C80.0994 82.2478 82.2478 80.0994 83.832 77.3867C85.4162 74.674 86.2083 71.7118 86.2083 68.5C86.2083 65.2882 85.4162 62.326 83.832 59.6133C82.2478 56.9006 80.0994 54.7522 77.3867 53.168C74.674 51.5838 71.7118 50.7917 68.5 50.7917ZM93.5 68.5C93.5 73.0356 92.3824 77.2185 90.1471 81.0488C87.9119 84.8791 84.8791 87.9119 81.0488 90.1471C77.2185 92.3824 73.0356 93.5 68.5 93.5C63.9644 93.5 59.7815 92.3824 55.9512 90.1471C52.1209 87.9119 49.0881 84.8791 46.8529 81.0488C44.6176 77.2185 43.5 73.0356 43.5 68.5C43.5 63.9644 44.6176 59.7815 46.8529 55.9512C49.0881 52.1209 52.1209 49.0881 55.9512 46.8529C59.7815 44.6176 63.9644 43.5 68.5 43.5C73.0356 43.5 77.2185 44.6176 81.0488 46.8529C84.8791 49.0881 87.9119 52.1209 90.1471 55.9512C92.3824 59.7815 93.5 63.9644 93.5 68.5Z" fill="#D9D9D9"/>
</svg>
