<svg width="149" height="149" viewBox="0 0 149 149" fill="none" xmlns="http://www.w3.org/2000/svg">
<g filter="url(#filter0_d_123_569)">
<path d="M6 31C6 17.7452 16.7452 7 30 7H119C132.255 7 143 17.7452 143 31V120C143 133.255 132.255 144 119 144H30C16.7452 144 6 133.255 6 120V31Z" fill="white" shape-rendering="crispEdges"/>
<path d="M74.5 57.7917C71.2882 57.7917 68.326 58.5838 65.6133 60.168C62.9006 61.7522 60.7522 63.9006 59.168 66.6133C57.5838 69.326 56.7917 72.2882 56.7917 75.5C56.7917 78.7118 57.5838 81.674 59.168 84.3867C60.7522 87.0994 62.9006 89.2478 65.6133 90.832C68.326 92.4162 71.2882 93.2083 74.5 93.2083C77.7118 93.2083 80.674 92.4162 83.3867 90.832C86.0994 89.2478 88.2478 87.0994 89.832 84.3867C91.4162 81.674 92.2083 78.7118 92.2083 75.5C92.2083 72.2882 91.4162 69.326 89.832 66.6133C88.2478 63.9006 86.0994 61.7522 83.3867 60.168C80.674 58.5838 77.7118 57.7917 74.5 57.7917ZM99.5 75.5C99.5 80.0356 98.3824 84.2185 96.1471 88.0488C93.9119 91.8791 90.8791 94.9119 87.0488 97.1471C83.2185 99.3824 79.0356 100.5 74.5 100.5C69.9644 100.5 65.7815 99.3824 61.9512 97.1471C58.1209 94.9119 55.0881 91.8791 52.8529 88.0488C50.6176 84.2185 49.5 80.0356 49.5 75.5C49.5 70.9644 50.6176 66.7815 52.8529 62.9512C55.0881 59.1209 58.1209 56.0881 61.9512 53.8529C65.7815 51.6176 69.9644 50.5 74.5 50.5C79.0356 50.5 83.2185 51.6176 87.0488 53.8529C90.8791 56.0881 93.9119 59.1209 96.1471 62.9512C98.3824 66.7815 99.5 70.9644 99.5 75.5Z" fill="#006FFF"/>
</g>
<defs>
<filter id="filter0_d_123_569" x="0" y="0" width="149" height="149" filterUnits="userSpaceOnUse" color-interpolation-filters="sRGB">
<feFlood flood-opacity="0" result="BackgroundImageFix"/>
<feColorMatrix in="SourceAlpha" type="matrix" values="0 0 0 0 0 0 0 0 0 0 0 0 0 0 0 0 0 0 127 0" result="hardAlpha"/>
<feOffset dy="-1"/>
<feGaussianBlur stdDeviation="3"/>
<feComposite in2="hardAlpha" operator="out"/>
<feColorMatrix type="matrix" values="0 0 0 0 0 0 0 0 0 0 0 0 0 0 0 0 0 0 0.25 0"/>
<feBlend mode="normal" in2="BackgroundImageFix" result="effect1_dropShadow_123_569"/>
<feBlend mode="normal" in="SourceGraphic" in2="effect1_dropShadow_123_569" result="shape"/>
</filter>
</defs>
</svg>
