<svg width="137" height="137" viewBox="0 0 137 137" fill="none" xmlns="http://www.w3.org/2000/svg">
<path d="M0 24C0 10.7452 10.7452 0 24 0H113C126.255 0 137 10.7452 137 24V113C137 126.255 126.255 137 113 137H24C10.7452 137 0 126.255 0 113V24Z" fill="white"/>
<path fill-rule="evenodd" clip-rule="evenodd" d="M92.3333 60.25C92.3333 72.1508 83.4238 81.9707 71.9111 83.4033C71.9149 83.4628 71.9167 83.5229 71.9167 83.5833V89.4166H74.8333C76.4442 89.4166 77.75 90.7224 77.75 92.3333C77.75 93.9442 76.4442 95.25 74.8333 95.25H71.9167V98.1666C71.9167 99.7775 70.6109 101.083 69 101.083C67.3891 101.083 66.0833 99.7775 66.0833 98.1666V95.25H63.1667C61.5559 95.25 60.25 93.9442 60.25 92.3333C60.25 90.7224 61.5559 89.4166 63.1667 89.4166H66.0833V83.5833C66.0833 83.5229 66.0851 83.4628 66.0889 83.4033C54.5761 81.9707 45.6667 72.1508 45.6667 60.25C45.6667 47.3633 56.1134 36.9166 69 36.9166C81.8867 36.9166 92.3333 47.3633 92.3333 60.25ZM51.5106 60.25C51.5106 69.9091 59.3409 77.7392 69 77.7392C78.6591 77.7392 86.4892 69.9091 86.4892 60.25C86.4892 50.5909 78.6591 42.7606 69 42.7606C59.3409 42.7606 51.5106 50.5909 51.5106 60.25Z" fill="#D9D9D9"/>
</svg>
