<svg width="137" height="137" viewBox="0 0 137 137" fill="none" xmlns="http://www.w3.org/2000/svg">
<path d="M0 24C0 10.7452 10.7452 0 24 0H113C126.255 0 137 10.7452 137 24V113C137 126.255 126.255 137 113 137H24C10.7452 137 0 126.255 0 113V24Z" fill="#FFE4E6"/>
<path fill-rule="evenodd" clip-rule="evenodd" d="M92.3333 60.25C92.3333 72.1509 83.4238 81.9707 71.9111 83.4034C71.9149 83.4629 71.9167 83.523 71.9167 83.5834V89.4167H74.8333C76.4442 89.4167 77.75 90.7225 77.75 92.3334C77.75 93.9442 76.4442 95.25 74.8333 95.25H71.9167V98.1667C71.9167 99.7776 70.6109 101.083 69 101.083C67.3891 101.083 66.0833 99.7776 66.0833 98.1667V95.25H63.1667C61.5559 95.25 60.25 93.9442 60.25 92.3334C60.25 90.7225 61.5559 89.4167 63.1667 89.4167H66.0833V83.5834C66.0833 83.523 66.0851 83.4629 66.0889 83.4034C54.5761 81.9707 45.6667 72.1509 45.6667 60.25C45.6667 47.3634 56.1133 36.9167 69 36.9167C81.8867 36.9167 92.3333 47.3634 92.3333 60.25ZM51.5106 60.25C51.5106 69.9091 59.3409 77.7392 69 77.7392C78.6591 77.7392 86.4892 69.9091 86.4892 60.25C86.4892 50.5909 78.6591 42.7607 69 42.7607C59.3409 42.7607 51.5106 50.5909 51.5106 60.25Z" fill="#F43F5E"/>
</svg>
