<svg width="137" height="137" viewBox="0 0 137 137" fill="none" xmlns="http://www.w3.org/2000/svg">
<path d="M0 24C0 10.7452 10.7452 0 24 0H113C126.255 0 137 10.7452 137 24V113C137 126.255 126.255 137 113 137H24C10.7452 137 0 126.255 0 113V24Z" fill="white"/>
<path fill-rule="evenodd" clip-rule="evenodd" d="M77.75 42.75C77.75 41.1392 79.0558 39.8334 80.6667 39.8334H92.3333C95.5551 39.8334 98.1667 42.445 98.1667 45.6667V57.3334C98.1667 58.9442 96.8609 60.25 95.25 60.25C93.6391 60.25 92.3333 58.9442 92.3333 57.3334V49.7876L79.1124 63.0086C78.9665 63.1545 78.8087 63.2816 78.6428 63.3904C81.7382 67.3498 83.5833 72.3344 83.5833 77.75C83.5833 90.6368 73.1367 101.083 60.25 101.083C47.3633 101.083 36.9167 90.6368 36.9167 77.75C36.9167 64.8633 47.3633 54.4167 60.25 54.4167C65.663 54.4167 70.6456 56.26 74.6041 59.353C74.7129 59.1866 74.8403 59.0288 74.9864 58.8827L88.2022 45.6667H80.6667C79.0558 45.6667 77.75 44.3609 77.75 42.75ZM60.25 95.2392C50.5909 95.2392 42.7606 87.4092 42.7606 77.75C42.7606 68.0909 50.5909 60.2607 60.25 60.2607C69.9091 60.2607 77.7392 68.0909 77.7392 77.75C77.7392 87.4092 69.9091 95.2392 60.25 95.2392Z" fill="#006FFF"/>
</svg>
