<svg width="137" height="137" viewBox="0 0 137 137" fill="none" xmlns="http://www.w3.org/2000/svg">
<path d="M0 24C0 10.7452 10.7452 0 24 0H113C126.255 0 137 10.7452 137 24V113C137 126.255 126.255 137 113 137H24C10.7452 137 0 126.255 0 113V24Z" fill="white"/>
<path fill-rule="evenodd" clip-rule="evenodd" d="M77.75 42.75C77.75 41.1392 79.0558 39.8333 80.6667 39.8333H92.3333C95.5551 39.8333 98.1667 42.445 98.1667 45.6666V57.3333C98.1667 58.9442 96.8609 60.25 95.25 60.25C93.6391 60.25 92.3333 58.9441 92.3333 57.3333V49.7875L79.1124 63.0085C78.9665 63.1545 78.8088 63.2816 78.6428 63.3904C81.7383 67.3497 83.5833 72.3343 83.5833 77.75C83.5833 90.6367 73.1367 101.083 60.25 101.083C47.3634 101.083 36.9167 90.6367 36.9167 77.75C36.9167 64.8633 47.3634 54.4166 60.25 54.4166C65.663 54.4166 70.6456 56.2599 74.6041 59.353C74.7129 59.1865 74.8403 59.0287 74.9865 58.8826L88.2022 45.6666H80.6667C79.0558 45.6666 77.75 44.3608 77.75 42.75ZM60.25 95.2392C50.5909 95.2392 42.7607 87.4091 42.7607 77.75C42.7607 68.0909 50.5909 60.2606 60.25 60.2606C69.9091 60.2606 77.7392 68.0909 77.7392 77.75C77.7392 87.4091 69.9091 95.2392 60.25 95.2392Z" fill="#D9D9D9"/>
</svg>
