<svg width="30" height="30" viewBox="0 0 30 30" fill="none" xmlns="http://www.w3.org/2000/svg">
<path d="M5.625 29.2266C3.60938 29.2266 1.96875 27.5859 1.96875 25.5703V4.42969C1.96875 2.41406 3.60938 0.773438 5.625 0.773438H24.375C26.3906 0.773438 28.0312 2.41406 28.0312 4.42969V25.5703C28.0312 27.5859 26.3906 29.2266 24.375 29.2266H5.625ZM3.375 25.5703C3.375 26.8125 4.38281 27.8203 5.625 27.8203H24.375C25.6172 27.8203 26.625 26.8125 26.625 25.5703V7.42969H3.375V25.5703ZM26.625 6.02344V4.42969C26.625 3.1875 25.6172 2.17969 24.375 2.17969H5.625C4.38281 2.17969 3.375 3.1875 3.375 4.42969V6.02344H26.625Z" fill="#B3B3B3"/>
<path d="M15.0234 26.3672C10.2187 26.3672 6.32812 22.4531 6.32812 17.6484C6.32812 12.8438 10.2422 8.92969 15.0469 8.92969C19.8516 8.92969 23.7656 12.8438 23.7656 17.6484C23.7422 22.4531 19.8281 26.3672 15.0234 26.3672ZM8.03906 19.7109C8.95312 22.8047 11.8359 24.9375 15.0469 24.9375C18.9141 24.9375 22.1016 21.9375 22.3359 18.0937C21.3516 19.0312 19.8281 20.1094 17.9531 20.1094C16.3359 20.1094 15.2109 19.2891 14.2266 18.5625C13.3828 17.9531 12.6797 17.4141 11.7422 17.4141C9.96094 17.4375 8.36719 19.2891 8.03906 19.7109ZM11.7187 16.0313C13.125 16.0313 14.0859 16.7578 15.0469 17.4609C15.9375 18.1172 16.7578 18.7266 17.9297 18.7266C19.125 18.7266 20.1797 18.0703 20.8359 17.5313C21.5625 16.9453 21.9844 16.3828 22.0312 16.3125C22.0781 16.2656 22.1016 16.2188 22.1719 16.1719C21.4687 12.7969 18.4687 10.3359 15.0234 10.3359C11.0156 10.3359 7.73437 13.6172 7.73437 17.6484V17.9531C8.64844 17.0625 10.0781 16.0313 11.7187 16.0313ZM6.82031 5.22656C6.25781 5.22656 5.78906 4.75781 5.78906 4.19531C5.78906 3.63281 6.25781 3.16406 6.82031 3.16406C7.38281 3.16406 7.85156 3.63281 7.85156 4.19531C7.85156 4.75781 7.40625 5.22656 6.82031 5.22656ZM10.1016 5.22656C9.53906 5.22656 9.07031 4.75781 9.07031 4.19531C9.07031 3.63281 9.53906 3.16406 10.1016 3.16406C10.6641 3.16406 11.1328 3.63281 11.1328 4.19531C11.1328 4.75781 10.6875 5.22656 10.1016 5.22656Z" fill="#B3B3B3"/>
</svg>
