<svg width="30" height="22" viewBox="0 0 30 22" fill="none" xmlns="http://www.w3.org/2000/svg">
<path d="M22.2984 4.96783e-07C21.4656 4.96783e-07 20.7064 0.180797 20.107 0.515625C19.793 0.691058 19.5096 0.924914 19.309 1.2082C19.273 1.20216 19.2365 1.19941 19.2 1.2H16.2C16.1205 1.19888 16.0416 1.21356 15.9678 1.24321C15.894 1.27286 15.8268 1.31688 15.7702 1.3727C15.7136 1.42853 15.6686 1.49505 15.6379 1.56841C15.6073 1.64176 15.5915 1.72049 15.5915 1.8C15.5915 1.87952 15.6073 1.95824 15.6379 2.03159C15.6686 2.10495 15.7136 2.17147 15.7702 2.2273C15.8268 2.28312 15.894 2.32714 15.9678 2.35679C16.0416 2.38644 16.1205 2.40112 16.2 2.4H19.0465C19.0801 2.55995 19.1388 2.71053 19.2188 2.85C19.197 2.93424 19.1938 3.02221 19.2094 3.10781C19.7931 6.31808 19.6377 9.68972 18.8016 12.184C18.3835 13.4311 17.7969 14.4524 17.0871 15.1406C16.3773 15.8289 15.5653 16.2 14.5605 16.2C13.8865 16.2 13.3425 15.7444 13.1344 14.6613C12.9262 13.5782 13.1734 11.9068 14.3215 9.89766C14.336 9.87167 14.3485 9.84464 14.359 9.8168C14.5902 9.74436 14.8074 9.66268 14.9965 9.54961C15.2873 9.37574 15.6035 9.068 15.6035 8.62031C15.6035 8.2018 15.5016 7.78545 15.3152 7.41211C15.2221 7.22544 15.1082 7.04902 14.9414 6.89414C14.7746 6.73927 14.5281 6.59648 14.2301 6.59648H8.56875C8.50976 6.59648 8.45465 6.60624 8.4 6.61641V3C8.39998 2.84088 8.33676 2.68827 8.22425 2.57575C8.11173 2.46324 7.95912 2.40002 7.8 2.4H1.2C1.04088 2.40002 0.888272 2.46324 0.775754 2.57575C0.663236 2.68827 0.600016 2.84088 0.600001 3V9C0.520493 8.99888 0.441556 9.01356 0.367775 9.04321C0.293994 9.07286 0.226841 9.11688 0.170219 9.1727C0.113598 9.22853 0.0686359 9.29505 0.0379472 9.36841C0.0072586 9.44176 -0.00854492 9.52048 -0.00854492 9.6C-0.00854492 9.67951 0.0072586 9.75824 0.0379472 9.83159C0.0686359 9.90495 0.113598 9.97147 0.170219 10.0273C0.226841 10.0831 0.293994 10.1271 0.367775 10.1568C0.441556 10.1864 0.520493 10.2011 0.600001 10.2H5.79844C3.30321 11.8536 2.43047 14.2102 2.43047 14.2102C2.4049 14.287 2.39515 14.3682 2.40178 14.4488C2.40842 14.5295 2.43131 14.608 2.46908 14.6796C2.50686 14.7512 2.55872 14.8144 2.62157 14.8655C2.68441 14.9165 2.75693 14.9543 2.83477 14.9766L4.14141 15.3504C3.80072 15.9574 3.6 16.6566 3.6 17.4C3.6 19.7126 5.4874 21.6 7.8 21.6C10.1126 21.6 12 19.7126 12 17.4H14.5605H19.2363C19.3078 17.9921 19.4907 18.4306 19.7895 18.7359C20.1818 19.1368 20.6928 19.2 21 19.2C21.1312 19.2 21.2556 19.1697 21.3738 19.1262C22.0341 20.5846 23.5019 21.6 25.2 21.6C27.5122 21.6 29.4 19.7122 29.4 17.4C29.4 16.9171 29.3096 16.4555 29.1586 16.0219C29.3724 15.9623 29.6013 15.8437 29.7598 15.6363C29.9403 15.4001 30 15.1117 30 14.8324C30 14.5445 29.9256 14.3084 29.7738 13.9652C29.6221 13.622 29.3821 13.223 29.018 12.8402C28.3378 12.1252 27.2056 11.4972 25.5516 11.4164C25.5151 8.12688 23.8918 5.50767 22.8586 4.16602C23.0377 4.1413 23.2032 4.10196 23.3566 4.04414C23.6574 3.93082 23.9175 3.72403 24.0703 3.47461C24.376 2.97577 24.3059 2.49505 24.3059 2.09883C24.3059 1.70386 24.3758 1.22533 24.0703 0.726564C23.9176 0.477181 23.6575 0.269281 23.3566 0.15586C23.0558 0.0424383 22.7146 -0.000167863 22.2984 4.96783e-07ZM22.2984 1.2H22.2996C22.625 1.19987 22.8304 1.24121 22.9324 1.27969C23.0345 1.31816 23.0337 1.33015 23.0473 1.35234C23.0745 1.39673 23.1059 1.667 23.1059 2.09883C23.1059 2.53181 23.0743 2.8035 23.0473 2.84766C23.0337 2.86974 23.0345 2.88183 22.9324 2.92031C22.8303 2.95879 22.624 3 22.2984 3C21.9726 3 21.6639 2.96166 21.3902 2.89688C21.3857 2.89579 21.3819 2.89446 21.3773 2.89336L20.9191 2.73984C20.8396 2.70648 20.7587 2.6741 20.6918 2.63672C20.3192 2.42847 20.2125 2.22254 20.2125 2.09883C20.2125 1.97614 20.3192 1.77145 20.6918 1.56328C21.0644 1.35511 21.6469 1.2 22.2984 1.2ZM1.8 3.6H7.2V8.56172C7.19955 8.5813 7.19648 8.60072 7.19648 8.62031C7.19648 8.62983 7.19971 8.63894 7.2 8.64844V9H1.8V3.6ZM20.4574 3.85195L20.4984 3.86602C20.6516 3.92874 20.8127 3.98133 20.9801 4.02656L21.2402 4.11328C21.362 4.23844 24.2501 7.32677 24.2918 11.475C21.8018 11.853 19.5581 13.7367 19.2398 16.2H17.6297C17.7204 16.123 17.8366 16.0866 17.9227 16.0031C18.8178 15.1351 19.4776 13.9439 19.9395 12.566C20.7759 10.0709 20.8851 6.93734 20.4574 3.85195ZM8.66367 7.80352H14.1363C14.159 7.82876 14.1953 7.8721 14.2348 7.95117C14.3125 8.10688 14.3534 8.33179 14.3707 8.51602C14.2572 8.58297 14.0171 8.67654 13.698 8.75156C13.0542 8.90293 12.1005 8.99648 11.0613 8.99648C10.0228 8.99648 9.24815 8.89912 8.80312 8.76211C8.58513 8.69499 8.45799 8.61715 8.41289 8.5793C8.4207 8.38839 8.4788 8.12447 8.56523 7.95117C8.60469 7.87207 8.64106 7.82876 8.66367 7.80352ZM8.51602 10.2H10.8938C10.9515 10.2005 11.0021 10.2035 11.0613 10.2035C11.1209 10.2035 11.1769 10.2005 11.2359 10.2H12.9164C12.0677 12.0007 11.7149 13.6366 11.9555 14.8887C12.0526 15.3939 12.2649 15.8203 12.5203 16.2H11.4844L3.89063 14.0309C4.20841 13.2791 5.2499 11.1583 8.51602 10.2ZM25.2 12.6C26.7709 12.6 27.6323 13.125 28.1484 13.6676C28.4065 13.9389 28.5748 14.2219 28.6758 14.4504C28.7768 14.6789 28.8 14.904 28.8 14.8324C28.8 14.8876 28.8044 14.859 28.8023 14.8687C28.6875 14.8863 28.3201 14.8636 27.8355 14.7937C26.8381 14.6498 25.3468 14.4167 23.7773 15.0422V15.0434C22.4306 15.5814 21.7923 16.5036 21.4406 17.1844C21.2648 17.5247 21.1395 17.8045 21.0551 17.9285C20.9707 18.0525 21.0438 18 21 18C20.8212 18 20.7323 17.985 20.6461 17.8969C20.5604 17.8093 20.4018 17.5364 20.4 16.8105C20.4254 15.9271 20.77 15.1243 21.3082 14.4574C22.2243 13.3508 23.712 12.6 25.2 12.6ZM5.30039 15.6809L6.66797 16.0723C6.27709 16.4036 6 16.8528 6 17.4C6 18.387 6.81302 19.2 7.8 19.2C8.78698 19.2 9.6 18.387 9.6 17.4C9.6 17.1838 9.4393 17.0362 9.36797 16.8434L10.7883 17.2488C10.7908 17.2996 10.8 17.3486 10.8 17.4C10.8 19.0642 9.4642 20.4 7.8 20.4C6.1358 20.4 4.8 19.0642 4.8 17.4C4.8 16.8328 4.95631 16.3063 5.22773 15.8555C5.26103 15.8015 5.28555 15.7425 5.30039 15.6809ZM26.0648 15.8344C26.6329 15.8369 27.1736 15.9112 27.6645 15.982C27.7299 15.9915 27.7875 15.9971 27.8508 16.0066C28.0707 16.4234 28.2 16.8937 28.2 17.4C28.2 19.0634 26.8634 20.4 25.2 20.4C23.7971 20.4 22.6368 19.4399 22.3043 18.1477C22.3714 18.0102 22.4348 17.8727 22.5059 17.7352C22.7485 17.2655 23.0401 16.7981 23.7 16.4133C23.5114 16.6976 23.4 17.0366 23.4 17.4C23.4 18.387 24.213 19.2 25.2 19.2C26.187 19.2 27 18.387 27 17.4C27 16.7274 26.6177 16.1431 26.0648 15.8344ZM7.8 16.8C8.13902 16.8 8.4 17.061 8.4 17.4C8.4 17.739 8.13902 18 7.8 18C7.46098 18 7.2 17.739 7.2 17.4C7.2 17.061 7.46098 16.8 7.8 16.8ZM25.2 16.8C25.539 16.8 25.8 17.061 25.8 17.4C25.8 17.739 25.539 18 25.2 18C24.861 18 24.6 17.739 24.6 17.4C24.6 17.061 24.861 16.8 25.2 16.8Z" fill="white"/>
</svg>
