<svg width="27" height="27" viewBox="0 0 27 27" fill="none" xmlns="http://www.w3.org/2000/svg">
<path d="M13.3999 13.725C13.3124 13.7125 13.1999 13.7125 13.0999 13.725C10.8999 13.65 9.1499 11.85 9.1499 9.63748C9.1499 7.37498 10.9749 5.53748 13.2499 5.53748C15.5124 5.53748 17.3499 7.37498 17.3499 9.63748C17.3374 11.85 15.5999 13.65 13.3999 13.725Z" stroke="white" stroke-width="1.5" stroke-linecap="round" stroke-linejoin="round"/>
<path d="M21.6749 21.9751C19.4499 24.0126 16.4999 25.2501 13.2499 25.2501C9.99995 25.2501 7.04995 24.0126 4.82495 21.9751C4.94995 20.8001 5.69995 19.6501 7.03745 18.7501C10.4625 16.4751 16.0624 16.4751 19.4624 18.7501C20.7999 19.6501 21.5499 20.8001 21.6749 21.9751Z" stroke="white" stroke-width="1.5" stroke-linecap="round" stroke-linejoin="round"/>
<path d="M13.25 25.75C20.1535 25.75 25.75 20.1535 25.75 13.25C25.75 6.34644 20.1535 0.75 13.25 0.75C6.34644 0.75 0.75 6.34644 0.75 13.25C0.75 20.1535 6.34644 25.75 13.25 25.75Z" stroke="white" stroke-width="1.5" stroke-linecap="round" stroke-linejoin="round"/>
</svg>
