<svg width="30" height="30" viewBox="0 0 30 30" fill="none" xmlns="http://www.w3.org/2000/svg">
<g clip-path="url(#clip0_157_1286)">
<path d="M22.2984 5.40002C21.4656 5.40002 20.7064 5.58082 20.107 5.91565C19.793 6.09108 19.5096 6.32494 19.309 6.60823C19.273 6.60218 19.2365 6.59944 19.2 6.60002H16.2C16.1205 6.5989 16.0416 6.61359 15.9678 6.64324C15.894 6.67289 15.8268 6.7169 15.7702 6.77273C15.7136 6.82856 15.6686 6.89508 15.6379 6.96843C15.6073 7.04179 15.5915 7.12051 15.5915 7.20002C15.5915 7.27954 15.6073 7.35826 15.6379 7.43162C15.6686 7.50497 15.7136 7.57149 15.7702 7.62732C15.8268 7.68315 15.894 7.72716 15.9678 7.75681C16.0416 7.78646 16.1205 7.80115 16.2 7.80002H19.0465C19.0801 7.95997 19.1388 8.11056 19.2188 8.25002C19.197 8.33427 19.1938 8.42224 19.2094 8.50784C19.7931 11.7181 19.6377 15.0897 18.8016 17.584C18.3835 18.8311 17.7969 19.8524 17.0871 20.5406C16.3773 21.2289 15.5653 21.6 14.5605 21.6C13.8865 21.6 13.3425 21.1444 13.1344 20.0614C12.9262 18.9783 13.1734 17.3068 14.3215 15.2977C14.336 15.2717 14.3485 15.2447 14.359 15.2168C14.5902 15.1444 14.8074 15.0627 14.9965 14.9496C15.2873 14.7758 15.6035 14.468 15.6035 14.0203C15.6035 13.6018 15.5016 13.1855 15.3152 12.8121C15.2221 12.6255 15.1082 12.449 14.9414 12.2942C14.7746 12.1393 14.5281 11.9965 14.2301 11.9965H8.56875C8.50976 11.9965 8.45465 12.0063 8.4 12.0164V8.40002C8.39998 8.2409 8.33676 8.0883 8.22425 7.97578C8.11173 7.86326 7.95912 7.80004 7.8 7.80002H1.2C1.04088 7.80004 0.888272 7.86326 0.775754 7.97578C0.663236 8.0883 0.600016 8.2409 0.600001 8.40002V14.4C0.520493 14.3989 0.441556 14.4136 0.367775 14.4432C0.293994 14.4729 0.226841 14.5169 0.170219 14.5727C0.113598 14.6286 0.0686359 14.6951 0.0379472 14.7684C0.0072586 14.8418 -0.00854492 14.9205 -0.00854492 15C-0.00854492 15.0795 0.0072586 15.1583 0.0379472 15.2316C0.0686359 15.305 0.113598 15.3715 0.170219 15.4273C0.226841 15.4831 0.293994 15.5272 0.367775 15.5568C0.441556 15.5865 0.520493 15.6011 0.600001 15.6H5.79844C3.30321 17.2536 2.43047 19.6102 2.43047 19.6102C2.4049 19.687 2.39515 19.7682 2.40178 19.8489C2.40842 19.9295 2.43131 20.008 2.46908 20.0797C2.50686 20.1513 2.55872 20.2145 2.62157 20.2655C2.68441 20.3165 2.75693 20.3543 2.83477 20.3766L4.14141 20.7504C3.80072 21.3575 3.6 22.0567 3.6 22.8C3.6 25.1126 5.4874 27 7.8 27C10.1126 27 12 25.1126 12 22.8H14.5605H19.2363C19.3078 23.3921 19.4907 23.8306 19.7895 24.136C20.1818 24.5369 20.6928 24.6 21 24.6C21.1312 24.6 21.2556 24.5697 21.3738 24.5262C22.0341 25.9846 23.5019 27 25.2 27C27.5122 27 29.4 25.1122 29.4 22.8C29.4 22.3171 29.3096 21.8555 29.1586 21.4219C29.3724 21.3623 29.6013 21.2437 29.7598 21.0364C29.9403 20.8001 30 20.5117 30 20.2324C30 19.9445 29.9256 19.7085 29.7738 19.3653C29.6221 19.0221 29.3821 18.623 29.018 18.2403C28.3378 17.5253 27.2056 16.8973 25.5516 16.8164C25.5151 13.5269 23.8919 10.9077 22.8586 9.56604C23.0377 9.54132 23.2032 9.50199 23.3566 9.44417C23.6574 9.33084 23.9175 9.12405 24.0703 8.87463C24.376 8.37579 24.3059 7.89507 24.3059 7.49885C24.3059 7.10389 24.3758 6.62535 24.0703 6.12659C23.9176 5.87721 23.6575 5.66931 23.3566 5.55588C23.0558 5.44246 22.7146 5.39986 22.2984 5.40002ZM22.2984 6.60002H22.2996C22.625 6.59989 22.8304 6.64124 22.9324 6.67971C23.0345 6.71818 23.0337 6.73018 23.0473 6.75237C23.0745 6.79676 23.1059 7.06702 23.1059 7.49885C23.1059 7.93183 23.0743 8.20352 23.0473 8.24768C23.0337 8.26976 23.0345 8.28186 22.9324 8.32034C22.8303 8.35882 22.624 8.40002 22.2984 8.40002C21.9726 8.40002 21.6639 8.36169 21.3902 8.2969C21.3857 8.29582 21.3819 8.29448 21.3773 8.29338L20.9191 8.13987C20.8396 8.10651 20.7587 8.07412 20.6918 8.03674C20.3192 7.8285 20.2125 7.62256 20.2125 7.49885C20.2125 7.37616 20.3192 7.17148 20.6918 6.96331C21.0644 6.75513 21.6469 6.60002 22.2984 6.60002ZM1.8 9.00002H7.2V13.9617C7.19955 13.9813 7.19648 14.0007 7.19648 14.0203C7.19648 14.0299 7.19971 14.039 7.2 14.0485V14.4H1.8V9.00002ZM20.4574 9.25198L20.4984 9.26604C20.6516 9.32876 20.8127 9.38135 20.9801 9.42659L21.2402 9.51331C21.362 9.63847 24.2501 12.7268 24.2918 16.875C21.8018 17.2531 19.5581 19.1367 19.2398 21.6H17.6297C17.7204 21.523 17.8366 21.4866 17.9227 21.4031C18.8178 20.5351 19.4776 19.3439 19.9395 17.966C20.7759 15.4709 20.8851 12.3374 20.4574 9.25198ZM8.66367 13.2035H14.1363C14.159 13.2288 14.1953 13.2721 14.2348 13.3512C14.3125 13.5069 14.3534 13.7318 14.3707 13.916C14.2572 13.983 14.0171 14.0766 13.698 14.1516C13.0542 14.303 12.1005 14.3965 11.0613 14.3965C10.0228 14.3965 9.24815 14.2991 8.80312 14.1621C8.58513 14.095 8.45799 14.0172 8.41289 13.9793C8.4207 13.7884 8.4788 13.5245 8.56523 13.3512C8.60469 13.2721 8.64106 13.2288 8.66367 13.2035ZM8.51602 15.6H10.8937C10.9515 15.6005 11.0021 15.6035 11.0613 15.6035C11.1209 15.6035 11.1769 15.6005 11.2359 15.6H12.9164C12.0677 17.4007 11.7149 19.0366 11.9555 20.2887C12.0526 20.7939 12.2649 21.2204 12.5203 21.6H11.4844L3.89063 19.4309C4.2084 18.6792 5.2499 16.5583 8.51602 15.6ZM25.2 18C26.7709 18 27.6323 18.525 28.1484 19.0676C28.4065 19.3389 28.5748 19.6219 28.6758 19.8504C28.7768 20.0789 28.8 20.304 28.8 20.2324C28.8 20.2876 28.8044 20.259 28.8023 20.2688C28.6875 20.2863 28.3201 20.2637 27.8355 20.1938C26.8381 20.0498 25.3468 19.8167 23.7773 20.4422V20.4434C22.4306 20.9814 21.7923 21.9037 21.4406 22.5844C21.2648 22.9248 21.1395 23.2045 21.0551 23.3285C20.9707 23.4526 21.0438 23.4 21 23.4C20.8212 23.4 20.7323 23.385 20.6461 23.2969C20.5604 23.2093 20.4018 22.9364 20.4 22.2106C20.4254 21.3271 20.77 20.5243 21.3082 19.8574C22.2243 18.7508 23.712 18 25.2 18ZM5.30039 21.0809L6.66797 21.4723C6.27709 21.8036 6 22.2528 6 22.8C6 23.787 6.81302 24.6 7.8 24.6C8.78698 24.6 9.6 23.787 9.6 22.8C9.6 22.5838 9.4393 22.4362 9.36797 22.2434L10.7883 22.6489C10.7908 22.6996 10.8 22.7486 10.8 22.8C10.8 24.4642 9.4642 25.8 7.8 25.8C6.1358 25.8 4.8 24.4642 4.8 22.8C4.8 22.2328 4.95631 21.7064 5.22773 21.2555C5.26103 21.2015 5.28555 21.1426 5.30039 21.0809ZM26.0648 21.2344C26.6329 21.2369 27.1736 21.3112 27.6645 21.3821C27.7299 21.3915 27.7875 21.3971 27.8508 21.4067C28.0707 21.8234 28.2 22.2937 28.2 22.8C28.2 24.4634 26.8634 25.8 25.2 25.8C23.7971 25.8 22.6368 24.8399 22.3043 23.5477C22.3714 23.4103 22.4348 23.2727 22.5059 23.1352C22.7485 22.6655 23.0401 22.1981 23.7 21.8133C23.5114 22.0977 23.4 22.4366 23.4 22.8C23.4 23.787 24.213 24.6 25.2 24.6C26.187 24.6 27 23.787 27 22.8C27 22.1274 26.6177 21.5432 26.0648 21.2344ZM7.8 22.2C8.13902 22.2 8.4 22.461 8.4 22.8C8.4 23.139 8.13902 23.4 7.8 23.4C7.46098 23.4 7.2 23.139 7.2 22.8C7.2 22.461 7.46098 22.2 7.8 22.2ZM25.2 22.2C25.539 22.2 25.8 22.461 25.8 22.8C25.8 23.139 25.539 23.4 25.2 23.4C24.861 23.4 24.6 23.139 24.6 22.8C24.6 22.461 24.861 22.2 25.2 22.2Z" fill="#B3B3B3"/>
</g>
<defs>
<clipPath id="clip0_157_1286">
<rect width="30" height="30" fill="white"/>
</clipPath>
</defs>
</svg>
