<svg width="30" height="27" viewBox="0 0 30 27" fill="none" xmlns="http://www.w3.org/2000/svg">
<path d="M26.3385 6.31145V1.4845C26.3385 0.952937 26.065 0.475105 25.6069 0.206336C25.147 -0.0634887 24.5938 -0.069055 24.1273 0.191863C19.6728 2.68303 14.827 4.13786 9.72469 4.5162C9.68561 4.51907 5.07398 4.53923 5.07398 4.53923C3.91576 4.53923 2.95846 5.41362 2.82598 6.53675H1.87939C0.843164 6.53675 0 7.37979 0 8.41608V12.5451C0 13.5814 0.843164 14.4245 1.87939 14.4245H2.82586C2.92125 15.2328 3.44367 15.9117 4.16092 16.2291L7.52918 25.5249C7.73971 26.1035 8.29482 26.4923 8.9107 26.4923H12.2908C12.77 26.4923 13.2201 26.258 13.495 25.8655C13.7698 25.473 13.8361 24.9698 13.6725 24.5202L10.7786 16.5376C15.4944 17.0275 19.9801 18.4478 24.1273 20.7671C24.3561 20.895 24.6057 20.9588 24.855 20.9588C25.1138 20.9588 25.3724 20.89 25.6067 20.7525C26.0648 20.4837 26.3385 20.0059 26.3385 19.4742V14.6473C28.401 14.3801 30 12.6136 30 10.4794C30 8.34518 28.401 6.57858 26.3385 6.31145ZM2.80963 12.975H1.87939C1.64227 12.975 1.44943 12.7821 1.44943 12.545V8.41608C1.44943 8.17913 1.64227 7.98618 1.87939 7.98618H2.80963V12.975ZM4.74199 14.9011C4.45781 14.7737 4.25906 14.4887 4.25906 14.1577V6.80341C4.25906 6.35417 4.62469 5.98866 5.07393 5.98866H9.01922V14.9725C9.01922 14.9725 5.03953 14.971 5.02236 14.9699C4.87699 14.9531 4.84641 14.9456 4.74199 14.9011ZM12.31 25.0149C12.3124 25.0208 12.3139 25.025 12.3076 25.0339C12.3015 25.0427 12.2969 25.0427 12.2907 25.0427H8.91064C8.90203 25.0427 8.89412 25.0373 8.89148 25.0301L5.77236 16.4219H9.19488L12.31 25.0149ZM24.8891 19.4743C24.8891 19.4848 24.8891 19.4932 24.8735 19.5024C24.8548 19.5132 24.8437 19.507 24.8348 19.502C20.3797 17.0106 15.5495 15.515 10.4687 15.0512V5.90827C15.5499 5.4438 20.3801 3.94807 24.8346 1.4569C24.8437 1.45192 24.8551 1.44577 24.8735 1.45655C24.8891 1.46575 24.8891 1.47401 24.8891 1.4845V19.4743ZM26.3385 13.1801V7.77864C27.5985 8.03141 28.5506 9.14616 28.5506 10.4793C28.5506 11.8126 27.5984 12.9274 26.3385 13.1801Z" fill="white"/>
</svg>
