<svg width="30" height="30" viewBox="0 0 30 30" fill="none" xmlns="http://www.w3.org/2000/svg">
<path d="M15.1499 15.975C15.0624 15.9625 14.9499 15.9625 14.8499 15.975C12.6499 15.9 10.8999 14.1 10.8999 11.8875C10.8999 9.62498 12.7249 7.78748 14.9999 7.78748C17.2624 7.78748 19.0999 9.62498 19.0999 11.8875C19.0874 14.1 17.3499 15.9 15.1499 15.975Z" stroke="#B3B3B3" stroke-width="1.5" stroke-linecap="round" stroke-linejoin="round"/>
<path d="M23.4249 24.2251C21.1999 26.2626 18.2499 27.5001 14.9999 27.5001C11.75 27.5001 8.79995 26.2626 6.57495 24.2251C6.69995 23.0501 7.44995 21.9001 8.78745 21.0001C12.2125 18.7251 17.8124 18.7251 21.2124 21.0001C22.5499 21.9001 23.2999 23.0501 23.4249 24.2251Z" stroke="#B3B3B3" stroke-width="1.5" stroke-linecap="round" stroke-linejoin="round"/>
<path d="M15 28C21.9035 28 27.5 22.4035 27.5 15.5C27.5 8.59644 21.9035 3 15 3C8.09644 3 2.5 8.59644 2.5 15.5C2.5 22.4035 8.09644 28 15 28Z" stroke="#B3B3B3" stroke-width="1.5" stroke-linecap="round" stroke-linejoin="round"/>
</svg>
