<svg width="56" height="56" viewBox="0 0 56 56" fill="none" xmlns="http://www.w3.org/2000/svg">
<circle cx="28" cy="28" r="28" fill="#FB7185"/>
<g clip-path="url(#clip0_112_366)">
<path fill-rule="evenodd" clip-rule="evenodd" d="M37.8438 40H18.1573C17.0977 40 16.3152 38.9545 16.7149 37.993C18.5691 33.547 22.9254 31 27.9998 31C33.0757 31 37.4319 33.547 39.2862 37.993C39.6859 38.9545 38.9034 40 37.8438 40ZM21.875 22C21.875 18.691 24.6235 16 27.9998 16C31.3776 16 34.1245 18.691 34.1245 22C34.1245 25.309 31.3776 28 27.9998 28C24.6235 28 21.875 25.309 21.875 22ZM42.9335 39.454C41.8203 34.4155 38.3384 30.6969 33.7555 29.0094C36.184 27.0939 37.6004 23.9964 37.0798 20.6049C36.4765 16.6704 33.1354 13.522 29.1022 13.063C23.5348 12.4285 18.8126 16.6735 18.8126 22C18.8126 24.835 20.1539 27.3609 22.2455 29.0094C17.6612 30.6969 14.1807 34.4155 13.066 39.454C12.6618 41.2855 14.1685 43 16.081 43H39.9186C41.8326 43 43.3393 41.2855 42.9335 39.454Z" fill="white"/>
</g>
<defs>
<clipPath id="clip0_112_366">
<rect width="30" height="30" fill="white" transform="translate(13 13)"/>
</clipPath>
</defs>
</svg>
